<svg width="160" height="160" viewBox="0 0 160 160" fill="none" xmlns="http://www.w3.org/2000/svg">
<path d="M16.2898 0H143.71C152.707 0 160 7.29441 160 16.2925V28L100.798 87.2011C98.148 89.852 93.8516 89.852 91.2004 87.2011L64.7987 60.7991C62.1481 58.1488 57.8512 58.1488 55.2006 60.7991L44.8002 71.1998C42.149 73.8507 42.149 78.1499 44.8002 80.8008L91.2004 127.201C93.8516 129.852 98.148 129.852 100.798 127.201L160 67.9999V143.707C160 152.706 152.707 160 143.71 160H16.2898C7.29317 160 0 152.706 0 143.707V16.2925C0 7.29441 7.29317 0 16.2898 0Z" fill="#2C70CF"/>
</svg>
