<svg width="100" height="20" viewBox="0 0 100 20" fill="none" xmlns="http://www.w3.org/2000/svg">
<path d="M18.1184 0H2.05374C0.919493 0 0 0.911804 0 2.03656V17.9634C0 19.0882 0.919493 20 2.05374 20H18.1184C19.2526 20 20.1721 19.0882 20.1721 17.9634V8.49997L12.7083 15.9001C12.3741 16.2314 11.8324 16.2314 11.4982 15.9001L5.64822 10.1001C5.31398 9.76874 5.31398 9.23132 5.64822 8.89996L6.95946 7.59988C7.29363 7.26858 7.83538 7.26858 8.16955 7.59988L11.4982 10.9001C11.8324 11.2315 12.3741 11.2315 12.7083 10.9001L20.1721 3.5V2.03656C20.1721 0.911804 19.2526 0 18.1184 0Z" fill="#2C70CF"/>
<path d="M34.2077 14.994C34.4473 14.2178 34.5671 13.3466 34.5671 12.3804V1.30826H31.3444V12.4517C31.3444 13.1011 31.2845 13.6555 31.1647 14.1149C31.0449 14.5663 30.8652 14.9346 30.6256 15.2197C30.394 15.5048 30.1025 15.7147 29.7511 15.8493C29.3996 15.976 28.9963 16.0394 28.5411 16.0394C28.2056 16.0394 27.9261 16.0117 27.7025 15.9563C27.4868 15.9008 27.3111 15.8731 27.1753 15.8731C26.9597 15.8731 26.792 15.9285 26.6722 16.0394C26.5603 16.1424 26.4925 16.281 26.4685 16.4552C26.4445 16.772 26.4166 17.0888 26.3846 17.4056C26.3527 17.7224 26.3247 18.0392 26.3008 18.356C26.756 18.4669 27.1913 18.5461 27.6066 18.5936C28.0219 18.649 28.4452 18.6768 28.8765 18.6768C29.8189 18.6768 30.6455 18.5302 31.3564 18.2372C32.0672 17.9442 32.6582 17.5244 33.1294 16.9779C33.6087 16.4315 33.9681 15.7702 34.2077 14.994Z" fill="#2C70CF"/>
<path d="M48.057 18.4867V6.29785H45.0979V15.1128C44.6987 15.5088 44.2753 15.8216 43.8281 16.0513C43.3809 16.273 42.9016 16.3839 42.3904 16.3839C41.6956 16.3839 41.1725 16.182 40.821 15.778C40.4776 15.3662 40.3059 14.788 40.3059 14.0436V6.29785H37.3468V14.0436C37.3468 14.7247 37.4347 15.3504 37.6104 15.9206C37.7941 16.483 38.0617 16.97 38.413 17.3819C38.7645 17.7937 39.1958 18.1144 39.7069 18.3441C40.2261 18.5659 40.821 18.6768 41.4919 18.6768C42.3146 18.6768 43.0294 18.5223 43.6364 18.2134C44.2434 17.8967 44.7984 17.4848 45.3016 16.9779L45.5053 17.9521C45.6092 18.3085 45.8567 18.4867 46.248 18.4867H48.057Z" fill="#2C70CF"/>
<path d="M58.239 8.94708C58.3269 8.89166 58.4108 8.80054 58.4906 8.67383L59.1615 7.61651C58.6983 7.16507 58.1192 6.80078 57.4244 6.52356C56.7295 6.24634 55.9589 6.10776 55.1122 6.10776C54.3535 6.10776 53.6827 6.21069 53.0996 6.41666C52.5245 6.61462 52.0414 6.88394 51.65 7.22449C51.2666 7.55713 50.9752 7.94916 50.7754 8.4006C50.5758 8.85205 50.4759 9.32724 50.4759 9.8262C50.4759 10.3648 50.5598 10.8241 50.7275 11.2043C50.9033 11.5844 51.1309 11.9052 51.4104 12.1665C51.6979 12.4279 52.0214 12.6457 52.3808 12.8199C52.7482 12.9863 53.1196 13.1328 53.4949 13.2595C53.8783 13.3862 54.2497 13.505 54.6091 13.6159C54.9765 13.7188 55.3 13.8376 55.5795 13.9723C55.867 14.107 56.0946 14.2653 56.2623 14.4475C56.4381 14.6297 56.5259 14.8633 56.5259 15.1484C56.5259 15.3385 56.486 15.5246 56.4061 15.7068C56.3342 15.881 56.2144 16.0354 56.0467 16.1701C55.887 16.3048 55.6793 16.4156 55.4237 16.5027C55.1761 16.5819 54.8766 16.6215 54.5252 16.6215C54.078 16.6215 53.7066 16.57 53.411 16.4671C53.1235 16.3642 52.8719 16.2533 52.6563 16.1345C52.4407 16.0157 52.249 15.9048 52.0813 15.8018C51.9216 15.6989 51.7498 15.6474 51.5661 15.6474C51.3825 15.6474 51.2307 15.683 51.1109 15.7543C50.9911 15.8256 50.8873 15.9285 50.7994 16.0632L50.1165 17.1799C50.3561 17.3937 50.6317 17.5917 50.9431 17.7739C51.2627 17.9561 51.6061 18.1144 51.9734 18.2491C52.3488 18.3838 52.7362 18.4867 53.1355 18.558C53.5428 18.6371 53.9582 18.6768 54.3814 18.6768C55.1802 18.6768 55.883 18.5777 56.4899 18.3798C57.105 18.1738 57.6201 17.8927 58.0354 17.5363C58.4507 17.172 58.7622 16.7443 58.9698 16.2533C59.1855 15.7543 59.2933 15.2118 59.2933 14.6257C59.2933 14.1346 59.2055 13.7149 59.0297 13.3664C58.862 13.0179 58.6344 12.7209 58.3469 12.4754C58.0674 12.222 57.7479 12.0161 57.3885 11.8577C57.029 11.6913 56.6617 11.5448 56.2863 11.4181C55.9189 11.2914 55.5555 11.1765 55.1961 11.0736C54.8367 10.9627 54.5132 10.84 54.2257 10.7053C53.9462 10.5706 53.7186 10.4162 53.5428 10.242C53.3751 10.0598 53.2913 9.83807 53.2913 9.57672C53.2913 9.18069 53.455 8.85992 53.7824 8.61444C54.1179 8.36896 54.5771 8.24615 55.1601 8.24615C55.5356 8.24615 55.859 8.2858 56.1305 8.36496C56.4101 8.44412 56.6577 8.53528 56.8733 8.63818C57.0889 8.73324 57.2767 8.82037 57.4364 8.89956C57.6041 8.97873 57.7598 9.01837 57.9036 9.01837C58.0394 9.01837 58.1512 8.9946 58.239 8.94708Z" fill="#2C70CF"/>
<path d="M63.1498 17.7858C63.7248 18.3798 64.5474 18.6768 65.6177 18.6768C66.2167 18.6768 66.7958 18.5857 67.3548 18.4035C67.9139 18.2213 68.4091 17.9521 68.8404 17.5957L67.9538 16.1701C67.8899 16.0829 67.83 16.0196 67.7741 15.98C67.7182 15.9325 67.6464 15.9087 67.5585 15.9087C67.4866 15.9087 67.4147 15.9325 67.3428 15.98C67.271 16.0196 67.1871 16.0632 67.0912 16.1107C67.0034 16.1582 66.8955 16.2057 66.7678 16.2533C66.648 16.2929 66.4963 16.3126 66.3125 16.3126C65.9851 16.3126 65.7255 16.2057 65.5338 15.9919C65.3501 15.778 65.2583 15.481 65.2583 15.1009V8.49563H68.5408V6.40475H65.2583V2.56753H63.7248C63.5492 2.56753 63.4054 2.61108 63.2935 2.69821C63.1817 2.78534 63.1059 2.90808 63.0659 3.0665L62.443 6.39288L60.4662 6.71365V7.87787C60.4662 8.08383 60.5221 8.23828 60.634 8.34118C60.7458 8.44412 60.8815 8.49563 61.0413 8.49563H62.2992V15.3029C62.2992 16.3562 62.5827 17.1839 63.1498 17.7858Z" fill="#2C70CF"/>
<path fill-rule="evenodd" clip-rule="evenodd" d="M85.6504 13.3664C86.0731 12.3131 86.2853 11.1567 86.2853 9.89746C86.2853 8.63818 86.0731 7.48184 85.6504 6.42853C85.2268 5.37518 84.632 4.47229 83.8653 3.71988C83.0984 2.95956 82.176 2.36954 81.0977 1.94977C80.0195 1.52209 78.8215 1.30826 77.5037 1.30826H70.9026V18.4867H77.5037C78.8215 18.4867 80.0195 18.2768 81.0977 17.8571C82.176 17.4373 83.0984 16.8473 83.8653 16.0869C84.632 15.3266 85.2268 14.4197 85.6504 13.3664ZM82.5953 7.36703C82.8508 8.11148 82.9786 8.95495 82.9786 9.89746C82.9786 10.84 82.8508 11.6873 82.5953 12.4398C82.3476 13.1842 81.9843 13.8179 81.5051 14.3406C81.0338 14.8554 80.4588 15.2513 79.7799 15.5286C79.109 15.8058 78.3503 15.9444 77.5037 15.9444H74.1373V3.85059H77.5037C78.3503 3.85059 79.109 3.98917 79.7799 4.26636C80.4588 4.54358 81.0338 4.94354 81.5051 5.46625C81.9843 5.98108 82.3476 6.61462 82.5953 7.36703Z" fill="#2C70CF"/>
<path fill-rule="evenodd" clip-rule="evenodd" d="M96.4179 6.54733C95.6752 6.2543 94.8485 6.10776 93.9381 6.10776C93.0199 6.10776 92.1847 6.2543 91.4342 6.54733C90.6837 6.84033 90.0402 7.25613 89.5054 7.79471C88.9783 8.33331 88.5667 8.9906 88.2714 9.76678C87.9839 10.543 87.8402 11.4102 87.8402 12.3685C87.8402 13.3348 87.9839 14.2059 88.2714 14.9821C88.5667 15.7583 88.9783 16.4196 89.5054 16.9661C90.0402 17.5125 90.6837 17.9323 91.4342 18.2253C92.1847 18.5183 93.0199 18.6649 93.9381 18.6649C94.8485 18.6649 95.6752 18.5183 96.4179 18.2253C97.1684 17.9323 97.8076 17.5125 98.3348 16.9661C98.8696 16.4196 99.2812 15.7583 99.5687 14.9821C99.8562 14.2059 100 13.3348 100 12.3685C100 11.4102 99.8562 10.543 99.5687 9.76678C99.2812 8.9906 98.8696 8.33331 98.3348 7.79471C97.8076 7.25613 97.1684 6.84033 96.4179 6.54733ZM96.2023 15.386C95.7154 16.0672 94.9606 16.4077 93.9381 16.4077C92.9001 16.4077 92.1291 16.0672 91.6259 15.386C91.1304 14.697 90.8831 13.6991 90.8831 12.3923C90.8831 11.0855 91.1304 10.0876 91.6259 9.39853C92.1291 8.7016 92.9001 8.35309 93.9381 8.35309C94.9606 8.35309 95.7154 8.6976 96.2023 9.38663C96.6978 10.0757 96.9451 11.0776 96.9451 12.3923C96.9451 13.707 96.6978 14.7049 96.2023 15.386Z" fill="#2C70CF"/>
</svg>
