<svg width="11970" height="2915" viewBox="0 0 11970 2915" fill="none" xmlns="http://www.w3.org/2000/svg">
<rect x="825.06" y="-55" width="2357.28" height="2356.95" rx="240" transform="rotate(18 825.06 -55)" fill="#AACBF9"/>
<rect y="534.229" width="2357.31" height="2356.91" rx="240" fill="#2C70CF"/>
<path d="M1343.68 2407.99L660.057 1724.48C620.997 1685.43 620.997 1622.1 660.057 1583.05L813.288 1429.84C852.339 1390.8 915.647 1390.8 954.698 1429.84L1343.68 1818.76C1382.74 1857.81 1446.04 1857.81 1485.09 1818.76L2463.41 840.613C2502.46 801.568 2565.77 801.568 2604.82 840.613L2758.05 993.818C2797.11 1032.87 2797.11 1096.2 2758.05 1135.25L1485.09 2407.99C1446.04 2447.03 1382.74 2447.03 1343.68 2407.99Z" fill="white"/>
<path d="M4318.8 1913.4C4318.8 2027.27 4304.8 2129.93 4276.8 2221.4C4248.8 2312.87 4206.8 2390.8 4150.8 2455.2C4095.73 2519.6 4026.67 2569.07 3943.6 2603.6C3860.53 2638.13 3763.93 2655.4 3653.8 2655.4C3603.4 2655.4 3553.93 2652.13 3505.4 2645.6C3456.87 2640 3406 2630.67 3352.8 2617.6C3355.6 2580.27 3358.87 2542.93 3362.6 2505.6C3366.33 2468.27 3369.6 2430.93 3372.4 2393.6C3375.2 2373.07 3383.13 2356.73 3396.2 2344.6C3410.2 2331.53 3429.8 2325 3455 2325C3470.87 2325 3491.4 2328.27 3516.6 2334.8C3542.73 2341.33 3575.4 2344.6 3614.6 2344.6C3667.8 2344.6 3714.93 2337.13 3756 2322.2C3797.07 2306.33 3831.13 2281.6 3858.2 2248C3886.2 2214.4 3907.2 2171 3921.2 2117.8C3935.2 2063.67 3942.2 1998.33 3942.2 1921.8V608.6H4318.8V1913.4ZM5895.24 1196.6V2633H5683.84C5638.11 2633 5609.18 2612 5597.04 2570L5573.24 2455.2C5514.44 2514.93 5449.58 2563.47 5378.64 2600.8C5307.71 2637.2 5224.18 2655.4 5128.04 2655.4C5049.64 2655.4 4980.11 2642.33 4919.44 2616.2C4859.71 2589.13 4809.31 2551.33 4768.24 2502.8C4727.18 2454.27 4695.91 2396.87 4674.44 2330.6C4653.91 2263.4 4643.64 2189.67 4643.64 2109.4V1196.6H4989.44V2109.4C4989.44 2197.13 5009.51 2265.27 5049.64 2313.8C5090.71 2361.4 5151.84 2385.2 5233.04 2385.2C5292.78 2385.2 5348.78 2372.13 5401.04 2346C5453.31 2318.93 5502.78 2282.07 5549.44 2235.4V1196.6H5895.24ZM7114.51 1476.6C7105.18 1491.53 7095.38 1502.27 7085.11 1508.8C7074.85 1514.4 7061.78 1517.2 7045.91 1517.2C7029.11 1517.2 7010.91 1512.53 6991.31 1503.2C6972.65 1493.87 6950.71 1483.6 6925.51 1472.4C6900.31 1460.27 6871.38 1449.53 6838.71 1440.2C6806.98 1430.87 6769.18 1426.2 6725.31 1426.2C6657.18 1426.2 6603.51 1440.67 6564.31 1469.6C6526.05 1498.53 6506.91 1536.33 6506.91 1583C6506.91 1613.8 6516.71 1639.93 6536.31 1661.4C6556.85 1681.93 6583.45 1700.13 6616.11 1716C6649.71 1731.87 6687.51 1746.33 6729.51 1759.4C6771.51 1771.53 6813.98 1785.07 6856.91 1800C6900.78 1814.93 6943.71 1832.2 6985.71 1851.8C7027.71 1870.47 7065.05 1894.73 7097.71 1924.6C7131.31 1953.53 7157.91 1988.53 7177.51 2029.6C7198.05 2070.67 7208.31 2120.13 7208.31 2178C7208.31 2247.07 7195.71 2311 7170.51 2369.8C7146.25 2427.67 7109.85 2478.07 7061.31 2521C7012.78 2563 6952.58 2596.13 6880.71 2620.4C6809.78 2643.73 6727.65 2655.4 6634.31 2655.4C6584.85 2655.4 6536.31 2650.73 6488.71 2641.4C6442.05 2633 6396.78 2620.87 6352.91 2605C6309.98 2589.13 6269.85 2570.47 6232.51 2549C6196.11 2527.53 6163.91 2504.2 6135.91 2479L6215.71 2347.4C6225.98 2331.53 6238.11 2319.4 6252.11 2311C6266.11 2302.6 6283.85 2298.4 6305.31 2298.4C6326.78 2298.4 6346.85 2304.47 6365.51 2316.6C6385.11 2328.73 6407.51 2341.8 6432.71 2355.8C6457.91 2369.8 6487.31 2382.87 6520.91 2395C6555.45 2407.13 6598.85 2413.2 6651.11 2413.2C6692.18 2413.2 6727.18 2408.53 6756.11 2399.2C6785.98 2388.93 6810.25 2375.87 6828.91 2360C6848.51 2344.13 6862.51 2325.93 6870.91 2305.4C6880.25 2283.93 6884.91 2262 6884.91 2239.6C6884.91 2206 6874.65 2178.47 6854.11 2157C6834.51 2135.53 6807.91 2116.87 6774.31 2101C6741.65 2085.13 6703.85 2071.13 6660.91 2059C6618.91 2045.93 6575.51 2031.93 6530.71 2017C6486.85 2002.07 6443.45 1984.8 6400.51 1965.2C6358.51 1944.67 6320.71 1919 6287.11 1888.2C6254.45 1857.4 6227.85 1819.6 6207.31 1774.8C6187.71 1730 6177.91 1675.87 6177.91 1612.4C6177.91 1553.6 6189.58 1497.6 6212.91 1444.4C6236.25 1391.2 6270.31 1345 6315.11 1305.8C6360.85 1265.67 6417.31 1233.93 6484.51 1210.6C6552.65 1186.33 6631.05 1174.2 6719.71 1174.2C6818.65 1174.2 6908.71 1190.53 6989.91 1223.2C7071.11 1255.87 7138.78 1298.8 7192.91 1352L7114.51 1476.6ZM7947.38 2655.4C7822.31 2655.4 7726.18 2620.4 7658.98 2550.4C7592.71 2479.47 7559.58 2381.93 7559.58 2257.8V1455.6H7412.58C7393.91 1455.6 7378.05 1449.53 7364.98 1437.4C7351.91 1425.27 7345.38 1407.07 7345.38 1382.8V1245.6L7576.38 1207.8L7649.18 815.8C7653.85 797.133 7662.71 782.667 7675.78 772.4C7688.85 762.133 7705.65 757 7726.18 757H7905.38V1209.2H8288.98V1455.6H7905.38V2234C7905.38 2278.8 7916.11 2313.8 7937.58 2339C7959.98 2364.2 7990.31 2376.8 8028.58 2376.8C8050.05 2376.8 8067.78 2374.47 8081.78 2369.8C8096.71 2364.2 8109.31 2358.6 8119.58 2353C8130.78 2347.4 8140.58 2342.27 8148.98 2337.6C8157.38 2332 8165.78 2329.2 8174.18 2329.2C8184.45 2329.2 8192.85 2332 8199.38 2337.6C8205.91 2342.27 8212.91 2349.73 8220.38 2360L8323.98 2528C8273.58 2570 8215.71 2601.73 8150.38 2623.2C8085.05 2644.67 8017.38 2655.4 7947.38 2655.4ZM10362.6 1620.8C10362.6 1769.2 10337.8 1905.47 10288.4 2029.6C10238.9 2153.73 10169.4 2260.6 10079.8 2350.2C9990.18 2439.8 9882.38 2509.33 9756.38 2558.8C9630.38 2608.27 9490.38 2633 9336.38 2633H8564.98V608.6H9336.38C9490.38 608.6 9630.38 633.8 9756.38 684.2C9882.38 733.667 9990.18 803.2 10079.8 892.8C10169.4 981.467 10238.9 1087.87 10288.4 1212C10337.8 1336.13 10362.6 1472.4 10362.6 1620.8ZM9976.18 1620.8C9976.18 1509.73 9961.24 1410.33 9931.38 1322.6C9902.44 1233.93 9859.98 1159.27 9803.98 1098.6C9748.91 1037 9681.71 989.867 9602.38 957.2C9523.98 924.533 9435.31 908.2 9336.38 908.2H8942.98V2333.4H9336.38C9435.31 2333.4 9523.98 2317.07 9602.38 2284.4C9681.71 2251.73 9748.91 2205.07 9803.98 2144.4C9859.98 2082.8 9902.44 2008.13 9931.38 1920.4C9961.24 1831.73 9976.18 1731.87 9976.18 1620.8ZM11256.9 1174.2C11363.3 1174.2 11459.9 1191.47 11546.7 1226C11634.4 1260.53 11709.1 1309.53 11770.7 1373C11833.2 1436.47 11881.3 1513.93 11914.9 1605.4C11948.5 1696.87 11965.3 1799.07 11965.3 1912C11965.3 2025.87 11948.5 2128.53 11914.9 2220C11881.3 2311.47 11833.2 2389.4 11770.7 2453.8C11709.1 2518.2 11634.4 2567.67 11546.7 2602.2C11459.9 2636.73 11363.3 2654 11256.9 2654C11149.6 2654 11052 2636.73 10964.3 2602.2C10876.6 2567.67 10801.4 2518.2 10738.9 2453.8C10677.3 2389.4 10629.2 2311.47 10594.7 2220C10561.1 2128.53 10544.3 2025.87 10544.3 1912C10544.3 1799.07 10561.1 1696.87 10594.7 1605.4C10629.2 1513.93 10677.3 1436.47 10738.9 1373C10801.4 1309.53 10876.6 1260.53 10964.3 1226C11052 1191.47 11149.6 1174.2 11256.9 1174.2ZM11256.9 2388C11376.4 2388 11464.6 2347.87 11521.5 2267.6C11579.4 2187.33 11608.3 2069.73 11608.3 1914.8C11608.3 1759.87 11579.4 1641.8 11521.5 1560.6C11464.6 1479.4 11376.4 1438.8 11256.9 1438.8C11135.6 1438.8 11045.5 1479.87 10986.7 1562C10928.8 1643.2 10899.9 1760.8 10899.9 1914.8C10899.9 2068.8 10928.8 2186.4 10986.7 2267.6C11045.5 2347.87 11135.6 2388 11256.9 2388Z" fill="#2C70CF"/>
</svg>
